<svg xmlns="http://www.w3.org/2000/svg" enable-background="new 0 0 512 512" viewBox="0 0 512 512"><path fill="#6d6d6d" d="M512,256c0-51-15-98.4-40.6-138.3c27.4-35.6,35-75.1,15.9-94.2c-19.1-19.1-58.8-11.4-94.4,16.2C353.3,14.6,306.4,0,256,0s-97.3,14.6-136.9,39.7C83.5,12.1,43.8,4.4,24.7,23.5C5.6,42.6,13.2,82.1,40.6,117.7C15,157.6,0,205,0,256c0,51,15,98.4,40.6,138.3c-27.4,35.6-35,75.1-15.9,94.2c19.1,19.1,58.8,11.4,94.4-16.2C158.7,497.4,205.6,512,256,512s97.3-14.6,136.9-39.7c35.7,27.6,75.3,35.3,94.4,16.2c19.1-19.1,11.5-58.6-15.9-94.2C497,354.4,512,306.9,512,256z M58.3,39.4c10.4,0,18.9,8.5,18.9,18.9c0,10.4-8.5,18.9-18.9,18.9c-10.5,0-18.9-8.5-18.9-18.9C39.4,47.9,47.9,39.4,58.3,39.4z M58.3,472.6c-10.5,0-18.9-8.5-18.9-18.9c0-10.4,8.5-18.9,18.9-18.9c10.4,0,18.9,8.5,18.9,18.9C77.2,464.1,68.7,472.6,58.3,472.6z M453.7,39.4c10.4,0,18.9,8.5,18.9,18.9c0,10.5-8.5,18.9-18.9,18.9c-10.5,0-18.9-8.5-18.9-18.9C434.8,47.9,443.2,39.4,453.7,39.4z M453.7,472.6c-10.5,0-18.9-8.5-18.9-18.9c0-10.5,8.5-18.9,18.9-18.9c10.4,0,18.9,8.5,18.9,18.9C472.6,464.1,464.1,472.6,453.7,472.6z"/><path fill="#5b5b5b" d="M256,473.5c-119.9,0-217.5-97.6-217.5-217.5c0-119.9,97.6-217.5,217.5-217.5S473.5,136.1,473.5,256C473.5,375.9,375.9,473.5,256,473.5z"/><path fill="#f96464" d="M256,434.5c-98.4,0-178.4-80.1-178.4-178.5c0-98.4,80-178.4,178.4-178.4c98.4,0,178.4,80,178.4,178.4C434.4,354.4,354.4,434.5,256,434.5z"/><path fill="#fff" d="M103.8,192.8c-7.1,16.9-11.4,35.2-12.4,54.4c-0.3,4.7,3.4,8.8,8.2,8.8h0c4.3,0,7.9-3.3,8.1-7.6c0.9-17.3,4.8-33.9,11.1-49.2c2.3-5.4-1.6-11.4-7.5-11.4l0,0C108.1,187.8,105.1,189.8,103.8,192.8z" opacity=".4"/><path d="M434.5,256c0,98.4-80.1,178.5-178.5,178.5c-6.6,0-13.1-0.4-19.5-1.1c89.2-9.8,158.9-85.6,158.9-177.4c0-91.8-69.7-167.6-158.9-177.3c6.4-0.7,12.9-1.1,19.5-1.1C354.4,77.6,434.5,157.6,434.5,256z" enable-background="new" opacity=".08"/><path fill="#6d6d6d" d="M256,336.4c-44.3,0-80.4-36.1-80.4-80.4c0-44.3,36.1-80.4,80.4-80.4s80.4,36.1,80.4,80.4C336.4,300.3,300.3,336.4,256,336.4z"/><path d="M336.4,256c0,44.4-36.1,80.5-80.4,80.5c-5.5,0-10.8-0.5-16-1.6c36.6-7.5,64.2-40,64.2-78.8c0-38.7-27.6-71.2-64.2-78.7c5.2-1.1,10.5-1.6,16-1.6C300.3,175.6,336.4,211.7,336.4,256z" enable-background="new" opacity=".08"/></svg>